<svg xmlns="http://www.w3.org/2000/svg" xmlns:xlink="http://www.w3.org/1999/xlink" id="Icons" x="0" y="0" version="1.1" viewBox="0 0 32 32" style="enable-background:new 0 0 32 32" xml:space="preserve"><style type="text/css">.st0{fill:none;stroke:#000;stroke-width:2;stroke-linecap:round;stroke-linejoin:round;stroke-miterlimit:10}</style><circle cx="16" cy="16" r="13" class="st0"/><path d="M10,14c0-1.1,0.9-2,2-2s2,0.9,2,2" class="st0"/><path d="M18,14c0-1.1,0.9-2,2-2s2,0.9,2,2" class="st0"/><path d="M16,18c-2.6,0-5-0.5-7-1.3c0,0.1,0,0.2,0,0.3c0,3.9,3.1,7,7,7s7-3.1,7-7c0-0.1,0-0.2,0-0.3	C21,17.5,18.6,18,16,18z" class="st0"/></svg>